<svg width="183" height="139" viewBox="0 0 183 139" fill="none" xmlns="http://www.w3.org/2000/svg">
<path d="M2.62217 124.282C4.14114 123.631 5.94085 124.14 7.50596 125.458C9.06818 124.148 10.863 123.645 12.378 124.294C14.9965 125.417 15.7873 129.556 14.1437 133.539C12.7018 137.034 9.86534 139.246 7.42295 138.98C5.01642 139.139 2.26913 136.948 0.857522 133.527C-0.786091 129.544 0.0036685 125.405 2.62217 124.282Z" fill="#FE9A9A"/>
<path d="M170.623 0.282337C172.142 -0.368518 173.942 0.139842 175.507 1.45812C177.069 0.148153 178.862 -0.355077 180.377 0.294056C182.996 1.41649 183.786 5.55548 182.142 9.53917C180.701 13.0318 177.868 15.2435 175.427 14.9796C173.019 15.1419 170.27 12.9513 168.857 9.52843C167.214 5.54474 168.004 1.40477 170.623 0.282337Z" fill="#FE9A9A"/>
<path d="M24 129C61 122 127.5 97.4999 97.5 55.4999C60 2.99995 19 22.4999 31 55.4999C43 88.4999 143 79 167.5 23" stroke="black" stroke-width="2" stroke-dasharray="4 4"/>
</svg>
